<svg width="100" height="100" viewBox="0 0 100 100" fill="none" xmlns="http://www.w3.org/2000/svg">
<path d="M48.4019 62.7317C51.8795 62.7346 55.289 61.7585 58.2472 59.9133C61.2053 58.068 63.5947 55.4268 65.1469 52.2864C66.6991 49.146 67.3525 45.631 67.0337 42.1364C66.715 38.6419 65.4366 35.3063 63.3423 32.5047C61.248 29.7031 58.4209 27.5464 55.1787 26.2772C51.9364 25.0079 48.4076 24.6764 44.989 25.3198C41.5703 25.9633 38.3972 27.5562 35.8264 29.9196C33.2556 32.283 31.389 35.3231 30.4364 38.6982C28.75 37.5309 26.8155 36.7797 24.7887 36.5053C22.7618 36.2308 20.6995 36.4408 18.7678 37.1183C16.8362 37.7957 15.0893 38.9217 13.668 40.4054C12.2467 41.8891 11.1907 43.689 10.5853 45.6601C9.97978 47.6312 9.84171 49.7182 10.1822 51.753C10.5227 53.7878 11.3322 55.7135 12.5454 57.3746C13.7587 59.0358 15.3418 60.3861 17.167 61.3166C18.9923 62.2471 21.0087 62.7319 23.0537 62.7317H48.4019Z" fill="#7269AF"/>
<path d="M67.152 75C71.3987 75.0034 75.5621 73.8185 79.1743 71.5784C82.7865 69.3383 85.7044 66.1318 87.5998 62.3194C89.4952 58.5069 90.2932 54.2397 89.9039 49.9973C89.5146 45.7549 87.9535 41.7055 85.3961 38.3043C82.8388 34.9032 79.3865 32.285 75.4273 30.7441C71.4681 29.2033 67.159 28.8008 62.9844 29.5819C58.8097 30.3631 54.935 32.2969 51.7957 35.166C48.6564 38.0352 46.3771 41.7258 45.2138 45.8232C43.1546 44.4061 40.7922 43.4942 38.3172 43.1611C35.8422 42.8279 33.3238 43.0828 30.965 43.9052C28.6063 44.7276 26.4731 46.0945 24.7375 47.8958C23.0019 49.697 21.7124 51.8821 20.9731 54.275C20.2337 56.6679 20.0651 59.2016 20.4809 61.6718C20.8966 64.1421 21.8851 66.4798 23.3667 68.4965C24.8482 70.5131 26.7814 72.1524 29.0103 73.282C31.2391 74.4117 33.7014 75.0002 36.1986 75H67.152Z" fill="#B9D8E8"/>
</svg>
