<svg width="100" height="100" viewBox="0 0 100 100" fill="none" xmlns="http://www.w3.org/2000/svg">
<path d="M63.7946 70.3744C68.6656 70.3778 73.4409 69.0226 77.584 66.461C81.7271 63.8995 85.0736 60.2332 87.2474 55.8743C89.4213 51.5153 90.3363 46.6364 89.8897 41.7859C89.443 36.9355 87.6524 32.3057 84.7191 28.4171C81.7857 24.5284 77.8259 21.5349 73.2848 19.773C68.7436 18.0112 63.801 17.5508 59.0126 18.4437C54.2241 19.3366 49.7796 21.5473 46.1786 24.8273C42.5775 28.1074 39.9627 32.3268 38.6279 37.0113C36.2656 35.3909 33.5556 34.3482 30.7164 33.9672C27.8772 33.5862 24.9882 33.8777 22.2823 34.8181C19.5764 35.7585 17.1293 37.3216 15.1383 39.3812C13.1472 41.4409 11.668 43.9396 10.8198 46.6758C9.97167 49.412 9.77826 52.3092 10.2552 55.1339C10.7322 57.9586 11.8661 60.6317 13.5657 62.9378C15.2653 65.2438 17.4829 67.1182 20.0398 68.41C22.5967 69.7017 25.4213 70.3746 28.286 70.3744H63.7946Z" fill="#B9D8E8"/>
<path d="M55.5854 69.2921C54.1061 67.0423 52.4542 64.911 50.6445 62.9173C48.8361 64.9109 47.1856 67.0423 45.7079 69.2921C44.6293 70.7606 43.9363 72.4762 43.6924 74.2819C43.6924 76.1257 44.4248 77.894 45.7286 79.1978C47.0324 80.5016 48.8007 81.2341 50.6445 81.2341C52.4884 81.2341 54.2567 80.5016 55.5604 79.1978C56.8642 77.894 57.5967 76.1257 57.5967 74.2819C57.3551 72.4763 56.6635 70.7605 55.5854 69.2921Z" fill="#83B3CB"/>
</svg>
