<svg width="100" height="100" viewBox="0 0 100 100" fill="none" xmlns="http://www.w3.org/2000/svg">
<path fill-rule="evenodd" clip-rule="evenodd" d="M10 41.1711C10 39.1098 11.6572 37.4387 13.7014 37.4387H64.3187C66.3629 37.4387 68.02 39.1098 68.02 41.1711C68.02 43.2324 66.3629 44.9035 64.3187 44.9035H13.7014C11.6572 44.9035 10 43.2324 10 41.1711Z" fill="#83B3CB"/>
<path fill-rule="evenodd" clip-rule="evenodd" d="M31.6931 25.7324C31.6931 23.6711 33.3503 22 35.3945 22H86.0118C88.056 22 89.7132 23.6711 89.7132 25.7324C89.7132 27.7937 88.056 29.4648 86.0118 29.4648H35.3945C33.3503 29.4648 31.6931 27.7937 31.6931 25.7324Z" fill="#B6D4E3"/>
<path fill-rule="evenodd" clip-rule="evenodd" d="M53.7695 58.1046C53.7695 56.0433 55.4266 54.3722 57.4709 54.3722H86.2986C88.3428 54.3722 90 56.0433 90 58.1046C90 60.166 88.3428 61.837 86.2986 61.837H57.4709C55.4266 61.837 53.7695 60.166 53.7695 58.1046Z" fill="#9FA6B7"/>
<path fill-rule="evenodd" clip-rule="evenodd" d="M10 74.2676C10 72.2063 11.6572 70.5352 13.7014 70.5352H64.3187C66.3629 70.5352 68.02 72.2063 68.02 74.2676C68.02 76.329 66.3629 78 64.3187 78H13.7014C11.6572 78 10 76.329 10 74.2676Z" fill="#615C9A"/>
<path fill-rule="evenodd" clip-rule="evenodd" d="M18.8219 58.0949C18.8219 56.0336 20.479 54.3625 22.5233 54.3625H39.0534C41.0976 54.3625 42.7548 56.0336 42.7548 58.0949C42.7548 60.1562 41.0976 61.8273 39.0534 61.8273H22.5233C20.479 61.8273 18.8219 60.1562 18.8219 58.0949Z" fill="#9FA6B7"/>
</svg>
