<svg width="100" height="100" viewBox="0 0 100 100" fill="none" xmlns="http://www.w3.org/2000/svg">
<path d="M63.7913 63.6357C68.6626 63.6397 73.4384 62.278 77.582 59.704C81.7255 57.1299 85.0725 53.4453 87.2467 49.0645C89.421 44.6837 90.3363 39.7802 89.8897 34.9053C89.4432 30.0304 87.6525 25.3773 84.719 21.469C81.7854 17.5608 77.8253 14.5522 73.2838 12.7816C68.7422 11.011 63.7993 10.5486 59.0106 11.4462C54.2219 12.3438 49.7772 14.566 46.1762 17.8628C42.5751 21.1597 39.9605 25.4006 38.6262 30.1089C36.2639 28.4805 33.554 27.4326 30.7149 27.0498C27.8757 26.667 24.9868 26.96 22.281 27.9051C19.5752 28.8503 17.1282 30.4211 15.1374 32.491C13.1465 34.561 11.6675 37.072 10.8195 39.8218C9.97149 42.5716 9.77828 45.4832 10.2554 48.3218C10.7326 51.1604 11.8667 53.8466 13.5664 56.1639C15.2662 58.4811 17.4839 60.3646 20.0408 61.6625C22.5978 62.9603 25.4224 63.6362 28.287 63.6357H63.7913Z" fill="#B9D8E8"/>
<path fill-rule="evenodd" clip-rule="evenodd" d="M67.9627 55.2522C69.7695 55.2522 71.2343 56.7242 71.2343 58.54V73.6601C71.2343 75.476 69.7695 76.948 67.9627 76.948C66.1558 76.948 64.6911 75.476 64.6911 73.6601V58.54C64.6911 56.7242 66.1558 55.2522 67.9627 55.2522Z" fill="#83B3CB"/>
<path fill-rule="evenodd" clip-rule="evenodd" d="M44.1803 73.813C45.9871 73.813 47.4519 75.285 47.4519 77.1008V85.7121C47.4519 87.528 45.9871 89 44.1803 89C42.3734 89 40.9087 87.528 40.9087 85.7121V77.1008C40.9087 75.285 42.3734 73.813 44.1803 73.813Z" fill="#9FA6B7"/>
<path fill-rule="evenodd" clip-rule="evenodd" d="M34.6912 55.2522C36.4981 55.2522 37.9628 56.7242 37.9628 58.54V66.7745C37.9628 68.5903 36.4981 70.0624 34.6912 70.0624C32.8844 70.0624 31.4196 68.5903 31.4196 66.7745V58.54C31.4196 56.7242 32.8844 55.2522 34.6912 55.2522Z" fill="#615C9A"/>
<path fill-rule="evenodd" clip-rule="evenodd" d="M53.1283 55.2522C54.9351 55.2522 56.3999 56.7242 56.3999 58.54V63.4773C56.3999 65.2931 54.9351 66.7651 53.1283 66.7651C51.3214 66.7651 49.8567 65.2931 49.8567 63.4773V58.54C49.8567 56.7242 51.3214 55.2522 53.1283 55.2522Z" fill="#9FA6B7"/>
</svg>
