<svg width="100" height="100" viewBox="0 0 100 100" fill="none" xmlns="http://www.w3.org/2000/svg">
<path d="M52.7217 12.7217C52.7217 11.2185 51.5031 10 50 10C48.4969 10 47.2783 11.2185 47.2783 12.7217V26.5604L39.7499 19.0305C38.6871 17.9675 36.9638 17.9673 35.9009 19.0301C34.8379 20.0929 34.8377 21.8161 35.9005 22.8791L47.2783 34.2592V47.2784H34.2592L22.8791 35.9005C21.8161 34.8377 20.0929 34.8379 19.0301 35.9009C17.9673 36.9638 17.9675 38.6871 19.0305 39.7499L26.5604 47.2784H12.7217C11.2185 47.2784 10 48.4969 10 50C10 51.5031 11.2185 52.7217 12.7217 52.7217H26.5613L19.0303 60.2527C17.9674 61.3156 17.9674 63.0388 19.0303 64.1017C20.0932 65.1646 21.8164 65.1646 22.8793 64.1017L34.2593 52.7217H47.2783V65.743L35.9007 77.1207C34.8378 78.1836 34.8378 79.9068 35.9007 80.9697C36.9635 82.0326 38.6868 82.0325 39.7497 80.9697L47.2783 73.441V87.2783C47.2783 88.7815 48.4969 90 50 90C51.5031 90 52.7217 88.7815 52.7217 87.2783V73.4401L60.2529 80.9699C61.3159 82.0326 63.0391 82.0325 64.1019 80.9695C65.1646 79.9065 65.1645 78.1833 64.1015 77.1205L52.7217 65.7428V52.7217H65.7429L77.1205 64.1015C78.1833 65.1645 79.9065 65.1646 80.9695 64.1019C82.0325 63.0391 82.0327 61.3159 80.9699 60.2529L73.4401 52.7217H87.2783C88.7815 52.7217 90 51.5031 90 50C90 48.4969 88.7815 47.2784 87.2783 47.2784H73.441L80.9697 39.7497C82.0326 38.6868 82.0326 36.9635 80.9697 35.9007C79.9068 34.8378 78.1836 34.8378 77.1207 35.9007L65.743 47.2784H52.7217V34.2593L64.1017 22.8793C65.1646 21.8164 65.1646 20.0931 64.1017 19.0303C63.0388 17.9674 61.3156 17.9674 60.2527 19.0303L52.7217 26.5613V12.7217Z" fill="#83B3CB"/>
</svg>
