<svg width="100" height="100" viewBox="0 0 100 100" fill="none" xmlns="http://www.w3.org/2000/svg">
<path d="M63.7946 64.9957C68.6656 64.999 73.4409 63.6536 77.584 61.1106C81.7271 58.5676 85.0736 54.9278 87.2474 50.6004C89.4213 46.2729 90.3363 41.4293 89.8897 36.6139C89.443 31.7986 87.6524 27.2023 84.7191 23.3417C81.7857 19.4812 77.8259 16.5093 73.2848 14.7602C68.7436 13.0111 63.801 12.5541 59.0126 13.4405C54.2241 14.3269 49.7796 16.5216 46.1786 19.778C42.5775 23.0343 39.9627 27.2232 38.6279 31.8739C36.2656 30.2651 33.5556 29.2299 30.7164 28.8517C27.8772 28.4735 24.9882 28.7629 22.2823 29.6965C19.5764 30.6301 17.1293 32.1819 15.1383 34.2266C13.1472 36.2714 11.668 38.752 10.8198 41.4684C9.97167 44.1849 9.77826 47.0611 10.2552 49.8654C10.7322 52.6696 11.8661 55.3234 13.5657 57.6128C15.2653 59.9021 17.4829 61.763 20.0398 63.0454C22.5967 64.3278 25.4213 64.9958 28.286 64.9957H63.7946Z" fill="#B9D8E8"/>
<path d="M55.2381 48.3279L35.8028 70.0552L47.5594 70.1927L43.2343 87L64.1781 64.9745H51.1559L55.2381 48.3279Z" fill="#D86837"/>
</svg>
